<svg xmlns="http://www.w3.org/2000/svg" width="1180" height="384" viewBox="0 0 1180 384"><defs><marker id="arr0F172A" viewBox="0 0 10 10" refX="8.5" refY="5" markerWidth="7" markerHeight="7" orient="auto-start-reverse"><path d="M0,0.5 L9.5,5 L0,9.5 z" fill="#0F172A"/></marker></defs><rect width="100%" height="100%" fill="#FFFFFF"/><rect x="2.0" y="2.0" width="724.0" height="380.0" rx="14.0" fill="#FFFFFF" stroke="#E2E8F0" stroke-width="1.5"/><text x="26.0" y="46.0" font-family="Inter, 'Segoe UI', Arial, sans-serif" font-size="27" font-weight="700" fill="#0B1F4B" text-anchor="start">A ditch is missing ground, not an object</text><polygon points="18.0,280.0 455.0,280.0 455.0,368.0 600.0,368.0 600.0,280.0 710.0,280.0 710.0,374.0 18.0,374.0" fill="#F8FAFC" stroke="none" stroke-width="1.0"/><polygon points="162.0,150.0 455.0,280.0 600.0,280.0" fill="#1D4ED8" stroke="none" stroke-width="1.0" opacity="0.1"/><polygon points="455.0,280.0 600.0,344.3 600.0,368.0 455.0,368.0" fill="#CBD0D6" stroke="none" stroke-width="1.0"/><line x1="461.0" y1="365.0" x2="501.0" y2="325.0" stroke="#FFFFFF" stroke-width="1.1" stroke-linecap="round"/><line x1="477.0" y1="365.0" x2="517.0" y2="325.0" stroke="#FFFFFF" stroke-width="1.1" stroke-linecap="round"/><line x1="493.0" y1="365.0" x2="533.0" y2="325.0" stroke="#FFFFFF" stroke-width="1.1" stroke-linecap="round"/><line x1="509.0" y1="365.0" x2="549.0" y2="325.0" stroke="#FFFFFF" stroke-width="1.1" stroke-linecap="round"/><line x1="525.0" y1="365.0" x2="565.0" y2="325.0" stroke="#FFFFFF" stroke-width="1.1" stroke-linecap="round"/><line x1="541.0" y1="365.0" x2="581.0" y2="325.0" stroke="#FFFFFF" stroke-width="1.1" stroke-linecap="round"/><line x1="557.0" y1="365.0" x2="597.0" y2="325.0" stroke="#FFFFFF" stroke-width="1.1" stroke-linecap="round"/><line x1="573.0" y1="365.0" x2="597.0" y2="341.0" stroke="#FFFFFF" stroke-width="1.1" stroke-linecap="round"/><line x1="589.0" y1="365.0" x2="597.0" y2="357.0" stroke="#FFFFFF" stroke-width="1.1" stroke-linecap="round"/><path d="M18,280.0 L455.0,280.0 L455.0,368.0 L600.0,368.0 L600.0,280.0 L710,280.0" fill="none" stroke="#0F172A" stroke-width="2.4" stroke-linecap="round" stroke-linejoin="round"/><line x1="600.0" y1="280.0" x2="600.0" y2="344.3" stroke="#C828A0" stroke-width="7" stroke-linecap="round"/><line x1="262.0" y1="280.0" x2="455.0" y2="280.0" stroke="#22A05A" stroke-width="7" stroke-linecap="round"/><line x1="600.0" y1="280.0" x2="708.0" y2="280.0" stroke="#22A05A" stroke-width="7" stroke-linecap="round"/><rect x="70.0" y="234.0" width="160.0" height="32.0" rx="9.0" fill="#F8FAFC" stroke="#475569" stroke-width="1.6"/><circle cx="100.0" cy="267.0" r="13.0" fill="#0F172A" stroke="#FFFFFF" stroke-width="2"/><circle cx="200.0" cy="267.0" r="13.0" fill="#0F172A" stroke="#FFFFFF" stroke-width="2"/><line x1="150.0" y1="234.0" x2="150.0" y2="162.0" stroke="#475569" stroke-width="4" stroke-linecap="round"/><rect x="127.0" y="137.0" width="46.0" height="26.0" rx="6.0" fill="#FFFFFF" stroke="#0F172A" stroke-width="2"/><circle cx="162.0" cy="150.0" r="6.5" fill="#1D4ED8" stroke="none" stroke-width="1.0"/><line x1="166.0" y1="150.0" x2="282.0" y2="280.0" stroke="#22A05A" stroke-width="1.4" stroke-linecap="round" stroke-dasharray="5 5"/><circle cx="282.0" cy="280.0" r="4.5" fill="#22A05A" stroke="none" stroke-width="1.0"/><line x1="166.0" y1="150.0" x2="345.0" y2="280.0" stroke="#22A05A" stroke-width="1.4" stroke-linecap="round" stroke-dasharray="5 5"/><circle cx="345.0" cy="280.0" r="4.5" fill="#22A05A" stroke="none" stroke-width="1.0"/><line x1="166.0" y1="150.0" x2="405.0" y2="280.0" stroke="#22A05A" stroke-width="1.4" stroke-linecap="round" stroke-dasharray="5 5"/><circle cx="405.0" cy="280.0" r="4.5" fill="#22A05A" stroke="none" stroke-width="1.0"/><line x1="166.0" y1="150.0" x2="648.0" y2="280.0" stroke="#22A05A" stroke-width="1.4" stroke-linecap="round" stroke-dasharray="5 5"/><circle cx="648.0" cy="280.0" r="4.5" fill="#22A05A" stroke="none" stroke-width="1.0"/><line x1="166.0" y1="150.0" x2="694.0" y2="280.0" stroke="#22A05A" stroke-width="1.4" stroke-linecap="round" stroke-dasharray="5 5"/><circle cx="694.0" cy="280.0" r="4.5" fill="#22A05A" stroke="none" stroke-width="1.0"/><line x1="166.0" y1="150.0" x2="600.0" y2="344.3" stroke="#C828A0" stroke-width="2" stroke-linecap="round"/><circle cx="600.0" cy="344.3" r="5.0" fill="#C828A0" stroke="none" stroke-width="1.0"/><line x1="166.0" y1="150.0" x2="600.0" y2="280.0" stroke="#1D4ED8" stroke-width="1.6" stroke-linecap="round"/><path d="M440.0,232.5 A290.0,290.0 0 0 1 427.1,267.6" fill="none" stroke="#1D4ED8" stroke-width="3" stroke-linecap="round" stroke-linejoin="round"/><rect x="322.0" y="66.0" width="290.0" height="74.0" rx="12.0" fill="#FFFFFF" stroke="#1D4ED8" stroke-width="1.5"/><text x="342.0" y="101.0" font-family="'JetBrains Mono', 'Cascadia Mono', Consolas, monospace" font-size="27" font-weight="700" fill="#1D4ED8" text-anchor="start">θ ≈ H·w / R²</text><text x="342.0" y="128.0" font-family="Inter, 'Segoe UI', Arial, sans-serif" font-size="18" font-weight="400" fill="#475569" text-anchor="start">visible angle of the opening</text><line x1="435.5" y1="141.0" x2="433.5" y2="244.1" stroke="#1D4ED8" stroke-width="1.4" stroke-linecap="round"/><line x1="46.0" y1="152.0" x2="46.0" y2="278.0" stroke="#0F172A" stroke-width="1.4" stroke-linecap="round" marker-end="url(#arr0F172A)"/><line x1="46.0" y1="278.0" x2="46.0" y2="152.0" stroke="#0F172A" stroke-width="1.4" stroke-linecap="round" marker-end="url(#arr0F172A)"/><line x1="38.0" y1="150.0" x2="123.0" y2="150.0" stroke="#94A3B8" stroke-width="1" stroke-linecap="round" stroke-dasharray="3 4"/><text x="36.0" y="223.0" font-family="Inter, 'Segoe UI', Arial, sans-serif" font-size="23" font-weight="700" fill="#0F172A" text-anchor="end">H</text><line x1="150.0" y1="330.0" x2="453.0" y2="330.0" stroke="#0F172A" stroke-width="1.4" stroke-linecap="round" marker-end="url(#arr0F172A)"/><line x1="453.0" y1="330.0" x2="152.0" y2="330.0" stroke="#0F172A" stroke-width="1.4" stroke-linecap="round" marker-end="url(#arr0F172A)"/><rect x="284.5" y="315.0" width="36.0" height="28.0" rx="0.0" fill="#F8FAFC" stroke="none" stroke-width="1.0"/><text x="302.5" y="338.0" font-family="Inter, 'Segoe UI', Arial, sans-serif" font-size="23" font-weight="700" fill="#0F172A" text-anchor="middle">R</text><line x1="457.0" y1="248.0" x2="598.0" y2="248.0" stroke="#0F172A" stroke-width="1.4" stroke-linecap="round" marker-end="url(#arr0F172A)"/><line x1="598.0" y1="248.0" x2="457.0" y2="248.0" stroke="#0F172A" stroke-width="1.4" stroke-linecap="round" marker-end="url(#arr0F172A)"/><rect x="514.5" y="218.0" width="26.0" height="24.0" rx="0.0" fill="#FFFFFF" stroke="none" stroke-width="1.0"/><text x="527.5" y="237.0" font-family="Inter, 'Segoe UI', Arial, sans-serif" font-size="23" font-weight="700" fill="#0F172A" text-anchor="middle">w</text><text x="445.0" y="306.0" font-family="Inter, 'Segoe UI', Arial, sans-serif" font-size="18" font-weight="700" fill="#0F172A" text-anchor="end">near lip</text><text x="527.5" y="358.0" font-family="Inter, 'Segoe UI', Arial, sans-serif" font-size="18" font-weight="700" fill="#0F172A" text-anchor="middle">never observed</text><text x="612.0" y="310.0" font-family="Inter, 'Segoe UI', Arial, sans-serif" font-size="18" font-weight="700" fill="#C828A0" text-anchor="start">far wall</text><text x="612.0" y="332.0" font-family="Inter, 'Segoe UI', Arial, sans-serif" font-size="18" font-weight="700" fill="#C828A0" text-anchor="start">seen below</text><text x="612.0" y="354.0" font-family="Inter, 'Segoe UI', Arial, sans-serif" font-size="18" font-weight="700" fill="#C828A0" text-anchor="start">the lip</text><rect x="740.0" y="2.0" width="438.0" height="380.0" rx="14.0" fill="#FFFFFF" stroke="#E2E8F0" stroke-width="1.5"/><text x="762.0" y="44.0" font-family="Inter, 'Segoe UI', Arial, sans-serif" font-size="21" font-weight="700" fill="#0F172A" text-anchor="start">Range along one image column</text><line x1="790.0" y1="224.0" x2="1156.0" y2="224.0" stroke="#E2E8F0" stroke-width="1.4" stroke-linecap="round"/><line x1="790.0" y1="224.0" x2="790.0" y2="68.0" stroke="#E2E8F0" stroke-width="1.4" stroke-linecap="round"/><text x="973.0" y="250.0" font-family="Inter, 'Segoe UI', Arial, sans-serif" font-size="17" font-weight="400" fill="#475569" text-anchor="middle">image row, near to far</text><text x="774" y="146.0" font-family="Inter, 'Segoe UI', Arial, sans-serif" font-size="17" fill="#475569" text-anchor="middle" transform="rotate(-90 774 146.0)">range</text><circle cx="800.0" cy="195.9" r="3.8" fill="#22A05A" stroke="none" stroke-width="1.0"/><circle cx="811.9" cy="194.9" r="3.8" fill="#22A05A" stroke="none" stroke-width="1.0"/><circle cx="823.9" cy="193.8" r="3.8" fill="#22A05A" stroke="none" stroke-width="1.0"/><circle cx="835.8" cy="192.6" r="3.8" fill="#22A05A" stroke="none" stroke-width="1.0"/><circle cx="847.7" cy="191.4" r="3.8" fill="#22A05A" stroke="none" stroke-width="1.0"/><circle cx="859.7" cy="190.2" r="3.8" fill="#22A05A" stroke="none" stroke-width="1.0"/><circle cx="871.6" cy="188.8" r="3.8" fill="#22A05A" stroke="none" stroke-width="1.0"/><circle cx="883.5" cy="187.4" r="3.8" fill="#22A05A" stroke="none" stroke-width="1.0"/><circle cx="895.4" cy="186.0" r="3.8" fill="#22A05A" stroke="none" stroke-width="1.0"/><circle cx="907.4" cy="184.4" r="3.8" fill="#22A05A" stroke="none" stroke-width="1.0"/><circle cx="919.3" cy="182.7" r="3.8" fill="#22A05A" stroke="none" stroke-width="1.0"/><circle cx="931.2" cy="180.9" r="3.8" fill="#22A05A" stroke="none" stroke-width="1.0"/><circle cx="943.2" cy="179.0" r="3.8" fill="#22A05A" stroke="none" stroke-width="1.0"/><circle cx="955.1" cy="176.9" r="3.8" fill="#22A05A" stroke="none" stroke-width="1.0"/><circle cx="967.0" cy="174.7" r="3.8" fill="#22A05A" stroke="none" stroke-width="1.0"/><circle cx="979.0" cy="172.3" r="3.8" fill="#22A05A" stroke="none" stroke-width="1.0"/><circle cx="990.9" cy="169.6" r="3.8" fill="#22A05A" stroke="none" stroke-width="1.0"/><circle cx="1002.8" cy="166.8" r="3.8" fill="#22A05A" stroke="none" stroke-width="1.0"/><circle cx="1014.8" cy="163.7" r="3.8" fill="#22A05A" stroke="none" stroke-width="1.0"/><circle cx="1026.7" cy="160.2" r="3.8" fill="#22A05A" stroke="none" stroke-width="1.0"/><circle cx="1038.6" cy="156.4" r="3.8" fill="#22A05A" stroke="none" stroke-width="1.0"/><circle cx="1050.6" cy="152.2" r="3.8" fill="#22A05A" stroke="none" stroke-width="1.0"/><circle cx="1062.5" cy="116.6" r="4.2" fill="#C828A0" stroke="none" stroke-width="1.0"/><circle cx="1074.4" cy="116.6" r="4.2" fill="#C828A0" stroke="none" stroke-width="1.0"/><circle cx="1086.3" cy="116.6" r="4.2" fill="#C828A0" stroke="none" stroke-width="1.0"/><circle cx="1098.3" cy="116.6" r="4.2" fill="#C828A0" stroke="none" stroke-width="1.0"/><circle cx="1110.2" cy="116.6" r="4.2" fill="#C828A0" stroke="none" stroke-width="1.0"/><circle cx="1122.1" cy="111.0" r="3.8" fill="#22A05A" stroke="none" stroke-width="1.0"/><circle cx="1134.1" cy="99.4" r="3.8" fill="#22A05A" stroke="none" stroke-width="1.0"/><circle cx="1146.0" cy="85.3" r="3.8" fill="#22A05A" stroke="none" stroke-width="1.0"/><line x1="1048.5" y1="152.8" x2="1048.5" y2="120.6" stroke="#0F172A" stroke-width="1.6" stroke-linecap="round" marker-end="url(#arr0F172A)"/><text x="1020.5" y="131.7" font-family="Inter, 'Segoe UI', Arial, sans-serif" font-size="18" font-weight="700" fill="#0F172A" text-anchor="end">range</text><text x="1020.5" y="152.7" font-family="Inter, 'Segoe UI', Arial, sans-serif" font-size="18" font-weight="700" fill="#0F172A" text-anchor="end">jump ≈ w</text><text x="1108.2" y="102.6" font-family="Inter, 'Segoe UI', Arial, sans-serif" font-size="17" font-weight="700" fill="#C828A0" text-anchor="end">far wall: flat range</text><rect x="762.0" y="269.0" width="18.0" height="18.0" rx="4.0" fill="#22A05A" stroke="none" stroke-width="1.0"/><text x="790.0" y="284.0" font-family="Inter, 'Segoe UI', Arial, sans-serif" font-size="18" font-weight="700" fill="#0F172A" text-anchor="start">Ground</text><text x="877.4" y="284.0" font-family="Inter, 'Segoe UI', Arial, sans-serif" font-size="18" font-weight="400" fill="#475569" text-anchor="start">range rises smoothly</text><rect x="762.0" y="297.0" width="18.0" height="18.0" rx="4.0" fill="#C828A0" stroke="none" stroke-width="1.0"/><text x="790.0" y="312.0" font-family="Inter, 'Segoe UI', Arial, sans-serif" font-size="18" font-weight="700" fill="#0F172A" text-anchor="start">Ditch</text><text x="877.4" y="312.0" font-family="Inter, 'Segoe UI', Arial, sans-serif" font-size="18" font-weight="400" fill="#475569" text-anchor="start">far wall near lip height</text><rect x="762.0" y="325.0" width="18.0" height="18.0" rx="4.0" fill="#F0A01E" stroke="none" stroke-width="1.0"/><text x="790.0" y="340.0" font-family="Inter, 'Segoe UI', Arial, sans-serif" font-size="18" font-weight="700" fill="#0F172A" text-anchor="start">Crest</text><text x="877.4" y="340.0" font-family="Inter, 'Segoe UI', Arial, sans-serif" font-size="18" font-weight="400" fill="#475569" text-anchor="start">ground reappears far below</text><rect x="762.0" y="353.0" width="18.0" height="18.0" rx="4.0" fill="#CBD0D6" stroke="none" stroke-width="1.0"/><text x="790.0" y="368.0" font-family="Inter, 'Segoe UI', Arial, sans-serif" font-size="18" font-weight="700" fill="#0F172A" text-anchor="start">Unseen</text><text x="877.4" y="368.0" font-family="Inter, 'Segoe UI', Arial, sans-serif" font-size="18" font-weight="400" fill="#475569" text-anchor="start">never observed, never free</text></svg>